<?xml version="1.0" encoding="UTF-8" standalone="no"?>
<!-- Created with Inkscape (http://www.inkscape.org/) -->

<svg
   width="200mm"
   height="200mm"
   viewBox="0 0 200 200"
   version="1.1"
   id="svg5"
   xml:space="preserve"
   inkscape:version="1.2.1 (9c6d41e, 2022-07-14)"
   sodipodi:docname="logo.svg"
   xmlns:inkscape="http://www.inkscape.org/namespaces/inkscape"
   xmlns:sodipodi="http://sodipodi.sourceforge.net/DTD/sodipodi-0.dtd"
   xmlns:xlink="http://www.w3.org/1999/xlink"
   xmlns="http://www.w3.org/2000/svg"
   xmlns:svg="http://www.w3.org/2000/svg"><sodipodi:namedview
     id="namedview7"
     pagecolor="#ffffff"
     bordercolor="#666666"
     borderopacity="1.0"
     inkscape:showpageshadow="2"
     inkscape:pageopacity="0.0"
     inkscape:pagecheckerboard="0"
     inkscape:deskcolor="#d1d1d1"
     inkscape:document-units="mm"
     showgrid="false"
     inkscape:zoom="0.5946522"
     inkscape:cx="-404.43809"
     inkscape:cy="367.44167"
     inkscape:window-width="1920"
     inkscape:window-height="1027"
     inkscape:window-x="1512"
     inkscape:window-y="25"
     inkscape:window-maximized="0"
     inkscape:current-layer="layer1" /><defs
     id="defs2"><linearGradient
       inkscape:collect="always"
       id="linearGradient399"><stop
         style="stop-color:#d400aa;stop-opacity:1"
         offset="0"
         id="stop395" /><stop
         style="stop-color:#2a2aff;stop-opacity:1"
         offset="1"
         id="stop397" /></linearGradient><linearGradient
       inkscape:collect="always"
       xlink:href="#linearGradient399"
       id="linearGradient401"
       x1="33.147877"
       y1="118.13103"
       x2="98.331291"
       y2="73.859703"
       gradientUnits="userSpaceOnUse"
       gradientTransform="matrix(1.4416906,0,0,1.4416906,2.3267551,-6.0942704)" /></defs><g
     inkscape:label="Ebene 1"
     inkscape:groupmode="layer"
     id="layer1"><path
       id="path179"
       style="fill:url(#linearGradient401);fill-opacity:1;stroke-width:0.381447"
       d="M 101.59793 2.1807454 C 101.20963 2.1732755 100.77025 2.1911912 100.23678 2.2251872 C 98.040638 2.365031 97.478545 2.5827557 95.081018 4.220931 C 92.172111 6.2084992 88.486182 9.9750907 85.431995 14.082345 L 83.511698 16.664616 L 82.520028 16.00109 C 79.467758 13.958102 73.068335 10.267736 70.083061 8.8289185 C 64.294612 6.0390503 61.05937 5.0948638 56.734005 4.9325155 C 53.058089 4.7945458 52.848376 4.8310744 50.953479 5.9396891 C 48.43625 7.4123876 46.625578 10.693515 46.625578 13.783138 C 46.625578 20.910382 52.846163 30.284447 66.564412 43.8304 L 72.644661 49.834167 L 128.71514 49.834167 L 132.36298 46.453495 C 147.38796 32.528133 155.59691 20.292314 154.83913 12.950114 C 154.47003 9.3738796 152.40476 6.4821573 149.33197 5.2379232 C 147.36283 4.4405834 141.64054 4.8751917 138.09183 6.0921346 C 133.0372 7.8254902 125.11016 11.953537 119.06302 16.00109 L 118.07135 16.664616 L 116.02858 13.893209 C 112.98193 9.758783 107.47546 4.4535036 104.89024 3.1615641 C 103.46965 2.4515725 102.76282 2.2031634 101.59793 2.1807454 z M 74.456437 58.767989 L 75.238302 58.802096 L 71.94858 62.425647 C 61.476578 73.964151 49.348941 88.715949 41.686344 99.235286 C 33.936654 109.87419 27.639818 120.89649 25.233602 128.03456 C 22.685037 135.59492 23.495828 144.96493 27.566793 154.98796 C 29.459601 159.64818 32.04201 163.91632 35.834505 168.65534 C 48.721044 184.75807 71.464074 195.50488 95.069649 196.64536 C 112.17305 197.47169 126.76718 194.67543 140.84308 187.87587 C 160.41495 178.4214 173.08301 163.55178 176.97628 145.46347 C 177.43911 143.31308 177.64693 140.67403 177.64549 136.99887 C 177.64249 131.94923 177.57474 131.46111 176.38562 128.03456 C 174.79612 123.45455 170.50856 115.13978 166.53971 108.94012 C 158.79178 96.837326 146.03848 80.703575 130.9703 63.941317 L 126.35146 58.802096 L 127.13177 58.767989 L 74.456437 58.767989 z M 123.14029 81.29633 C 124.14126 81.29633 125.14255 81.389374 126.39177 81.574866 C 131.06598 82.268909 135.17506 84.267423 138.55537 87.490784 C 142.62941 91.375662 144.88179 96.006427 145.48311 101.73488 C 146.03097 106.95395 144.36952 112.87518 141.15676 117.15409 C 139.433 119.44989 117.11422 141.60306 115.32784 142.79128 C 112.80688 144.46814 110.58192 145.43377 107.79704 146.06085 C 105.56836 146.5627 100.5228 146.70397 98.507682 146.32078 C 94.391975 145.53811 90.210369 143.39324 87.323352 140.58418 C 85.717665 139.02188 85.163859 137.89214 85.061475 135.97051 C 84.959399 134.05471 85.449205 132.62705 86.648458 131.34495 C 87.871109 130.03785 89.409338 129.3958 91.324141 129.39365 C 93.141276 129.39165 94.298395 129.85858 96.030831 131.29379 C 97.512837 132.52153 98.224293 132.93417 99.701925 133.42235 C 101.2573 133.9362 103.65609 133.97929 105.25559 133.52208 C 107.64528 132.83897 107.85654 132.65407 119.43302 121.11767 C 125.85144 114.72148 130.71726 109.72212 131.14962 109.07913 C 132.99751 106.33091 133.16106 102.43901 131.562 99.260608 C 130.95394 98.051987 128.86646 95.964512 127.65784 95.356453 C 124.65954 93.847984 121.00875 93.921374 118.15144 95.547656 C 117.66927 95.822088 114.37973 98.93579 110.51625 102.77461 C 102.898 110.34424 103.54696 109.89793 101.3535 109.07861 C 98.833605 108.13737 95.062072 107.44874 92.425883 107.44874 C 91.115357 107.44874 90.973152 107.40879 90.462695 106.89838 C 89.836017 106.27172 89.768523 105.68604 90.24307 104.99204 C 90.423591 104.72804 94.764598 100.36097 99.890027 95.287207 C 106.44546 88.797861 109.60686 85.800402 110.54984 85.179297 C 113.52157 83.221913 116.47571 82.081734 119.88932 81.574866 C 121.13855 81.389374 122.13932 81.29633 123.14029 81.29633 z M 91.816618 112.35748 C 93.893081 112.35062 96.107259 112.56245 97.63125 112.9621 C 101.29524 113.92295 104.65849 115.75542 107.37536 118.27082 C 109.26172 120.01731 109.77418 121.10308 109.77418 123.35681 C 109.77418 124.82851 109.70523 125.19121 109.2507 126.11685 C 108.62304 127.39497 107.55931 128.40107 106.12531 129.07326 C 105.25425 129.48158 104.80105 129.56851 103.56112 129.5647 C 101.70113 129.5587 100.57356 129.10324 98.781051 127.63252 C 96.581381 125.82776 94.766445 125.14403 92.184554 125.14792 C 90.392773 125.14992 88.77803 125.56467 87.31405 126.39694 C 86.116946 127.0775 64.707783 148.38577 63.733577 149.8663 C 62.653452 151.50781 62.173081 153.14077 62.172432 155.17347 C 62.171565 157.93906 63.036463 160.05432 64.950041 161.96789 C 66.896692 163.91455 68.972092 164.74627 71.839026 164.72793 C 73.770876 164.71563 75.090843 164.36484 76.718831 163.43137 C 77.21522 163.14673 80.460254 160.07193 84.366943 156.18427 C 89.703697 150.87351 91.25444 149.43119 91.629032 149.43119 C 91.891001 149.43119 92.734505 149.64576 93.503337 149.90816 C 96.561398 150.95187 99.647269 151.50024 102.46816 151.50135 C 103.62124 151.50172 103.89975 151.56846 104.34143 151.94835 C 104.73263 152.28485 104.86027 152.56496 104.86027 153.08678 C 104.86027 153.74908 104.46055 154.1786 95.550757 163.09134 C 89.823044 168.82094 85.698161 172.79511 84.829447 173.42094 C 80.123723 176.81103 74.36272 178.2046 68.450602 177.38297 C 66.209126 177.07147 63.646244 176.23523 61.436043 175.09371 C 50.571196 169.48223 46.201543 156.13488 51.647493 145.19527 C 53.172179 142.13252 53.597232 141.65857 65.891069 129.32131 C 78.245753 116.92296 79.07787 116.1722 82.180514 114.61161 C 83.782898 113.80564 86.421309 112.95819 88.405973 112.61276 C 89.374143 112.44425 90.57074 112.3616 91.816618 112.35748 z " /></g></svg>
